<svg width="354" height="121" viewBox="0 0 354 121" fill="none" xmlns="http://www.w3.org/2000/svg">
<path d="M34.584 96.96C28.888 96.96 24.056 95.744 20.088 93.312C16.12 90.816 13.08 87.584 10.968 83.616C8.92 79.584 7.896 75.232 7.896 70.56C7.896 65.888 8.92 61.568 10.968 57.6C13.08 53.568 16.12 50.336 20.088 47.904C24.056 45.408 28.888 44.16 34.584 44.16C40.28 44.16 45.112 45.408 49.08 47.904C53.048 50.336 56.056 53.568 58.104 57.6C60.216 61.568 61.272 65.888 61.272 70.56C61.272 75.232 60.216 79.584 58.104 83.616C56.056 87.584 53.048 90.816 49.08 93.312C45.112 95.744 40.28 96.96 34.584 96.96ZM34.584 85.056C37.144 85.056 39.288 84.384 41.016 83.04C42.808 81.696 44.184 79.936 45.144 77.76C46.104 75.52 46.584 73.12 46.584 70.56C46.584 67.936 46.104 65.536 45.144 63.36C44.184 61.184 42.808 59.424 41.016 58.08C39.288 56.736 37.144 56.064 34.584 56.064C32.024 56.064 29.848 56.736 28.056 58.08C26.264 59.424 24.888 61.184 23.928 63.36C23.032 65.536 22.584 67.936 22.584 70.56C22.584 73.12 23.032 75.52 23.928 77.76C24.888 79.936 26.264 81.696 28.056 83.04C29.848 84.384 32.024 85.056 34.584 85.056ZM92.9828 96.96C89.2068 96.96 85.9108 96.224 83.0948 94.752C80.3428 93.216 78.0388 91.2 76.1828 88.704C74.3268 86.144 72.9188 83.296 71.9588 80.16C71.0628 77.024 70.6148 73.824 70.6148 70.56C70.6148 67.296 71.0628 64.096 71.9588 60.96C72.9188 57.824 74.3268 55.008 76.1828 52.512C78.0388 49.952 80.3428 47.936 83.0948 46.464C85.9108 44.928 89.2068 44.16 92.9828 44.16C96.2468 44.16 98.9348 44.704 101.047 45.792C103.159 46.816 104.759 47.936 105.847 49.152C106.999 50.368 107.703 51.2 107.959 51.648H108.727V23.04H123.319V96H108.727V89.472H107.959C107.703 89.92 106.999 90.752 105.847 91.968C104.759 93.184 103.159 94.336 101.047 95.424C98.9348 96.448 96.2468 96.96 92.9828 96.96ZM97.2068 85.152C99.8308 85.152 102.007 84.448 103.735 83.04C105.527 81.568 106.839 79.712 107.671 77.472C108.567 75.232 109.015 72.928 109.015 70.56C109.015 68.192 108.567 65.888 107.671 63.648C106.839 61.408 105.527 59.584 103.735 58.176C102.007 56.704 99.8308 55.968 97.2068 55.968C94.5828 55.968 92.3748 56.704 90.5828 58.176C88.8548 59.584 87.5428 61.408 86.6468 63.648C85.8148 65.888 85.3988 68.192 85.3988 70.56C85.3988 72.928 85.8148 75.232 86.6468 77.472C87.5428 79.712 88.8548 81.568 90.5828 83.04C92.3748 84.448 94.5828 85.152 97.2068 85.152ZM160.193 96.96C155.713 96.96 151.841 96.224 148.577 94.752C145.313 93.216 142.625 91.2 140.513 88.704C138.401 86.144 136.801 83.296 135.713 80.16C134.689 77.024 134.177 73.792 134.177 70.464C134.177 67.264 134.657 64.128 135.617 61.056C136.641 57.92 138.177 55.072 140.225 52.512C142.337 49.952 144.993 47.936 148.193 46.464C151.457 44.928 155.297 44.16 159.713 44.16C164.385 44.16 168.513 45.184 172.097 47.232C175.745 49.28 178.593 52.32 180.641 56.352C182.689 60.32 183.713 65.152 183.713 70.848V74.4H148.865C149.057 77.472 150.113 80.128 152.033 82.368C154.017 84.608 156.737 85.728 160.193 85.728C162.177 85.728 163.777 85.44 164.993 84.864C166.273 84.224 167.265 83.52 167.969 82.752C168.673 81.92 169.153 81.184 169.409 80.544C169.665 79.904 169.793 79.584 169.793 79.584H183.233C183.233 79.584 183.073 80.192 182.753 81.408C182.497 82.56 181.921 84 181.025 85.728C180.129 87.456 178.817 89.184 177.089 90.912C175.425 92.64 173.217 94.08 170.465 95.232C167.713 96.384 164.289 96.96 160.193 96.96ZM148.865 65.568H169.697C169.505 62.048 168.449 59.424 166.529 57.696C164.609 55.968 162.241 55.104 159.425 55.104C156.609 55.104 154.209 56.032 152.225 57.888C150.241 59.68 149.121 62.24 148.865 65.568ZM215.601 96.96C211.377 96.96 207.889 96.384 205.137 95.232C202.385 94.08 200.177 92.672 198.513 91.008C196.913 89.28 195.697 87.584 194.865 85.92C194.097 84.192 193.585 82.752 193.329 81.6C193.137 80.448 193.041 79.872 193.041 79.872H206.577C206.577 79.872 206.673 80.192 206.865 80.832C207.057 81.472 207.473 82.208 208.113 83.04C208.817 83.872 209.809 84.608 211.089 85.248C212.369 85.888 214.097 86.208 216.273 86.208C218.961 86.208 220.785 85.664 221.745 84.576C222.769 83.488 223.281 82.4 223.281 81.312C223.281 79.008 221.393 77.472 217.617 76.704L210.705 75.36C207.761 74.784 204.977 73.952 202.353 72.864C199.793 71.712 197.713 70.144 196.113 68.16C194.577 66.112 193.809 63.488 193.809 60.288C193.809 57.216 194.609 54.464 196.209 52.032C197.809 49.6 200.081 47.68 203.025 46.272C206.033 44.864 209.617 44.16 213.777 44.16C217.681 44.16 220.913 44.704 223.473 45.792C226.097 46.816 228.177 48.128 229.713 49.728C231.249 51.264 232.401 52.832 233.169 54.432C233.937 55.968 234.417 57.28 234.609 58.368C234.865 59.392 234.993 59.904 234.993 59.904H221.937C221.937 59.904 221.745 59.488 221.361 58.656C220.977 57.76 220.177 56.896 218.961 56.064C217.809 55.168 216.017 54.72 213.585 54.72C211.089 54.72 209.361 55.232 208.401 56.256C207.441 57.216 206.961 58.24 206.961 59.328C206.961 60.608 207.505 61.568 208.593 62.208C209.745 62.848 211.217 63.36 213.009 63.744L219.633 65.088C224.497 66.048 228.497 67.744 231.633 70.176C234.769 72.544 236.337 76 236.337 80.544C236.337 83.616 235.537 86.4 233.937 88.896C232.337 91.392 230.001 93.376 226.929 94.848C223.857 96.256 220.081 96.96 215.601 96.96ZM266.601 96.96C262.377 96.96 258.889 96.384 256.137 95.232C253.385 94.08 251.177 92.672 249.513 91.008C247.913 89.28 246.697 87.584 245.865 85.92C245.097 84.192 244.585 82.752 244.329 81.6C244.137 80.448 244.041 79.872 244.041 79.872H257.577C257.577 79.872 257.673 80.192 257.865 80.832C258.057 81.472 258.473 82.208 259.113 83.04C259.817 83.872 260.809 84.608 262.089 85.248C263.369 85.888 265.097 86.208 267.273 86.208C269.961 86.208 271.785 85.664 272.745 84.576C273.769 83.488 274.281 82.4 274.281 81.312C274.281 79.008 272.393 77.472 268.617 76.704L261.705 75.36C258.761 74.784 255.977 73.952 253.353 72.864C250.793 71.712 248.713 70.144 247.113 68.16C245.577 66.112 244.809 63.488 244.809 60.288C244.809 57.216 245.609 54.464 247.209 52.032C248.809 49.6 251.081 47.68 254.025 46.272C257.033 44.864 260.617 44.16 264.777 44.16C268.681 44.16 271.913 44.704 274.473 45.792C277.097 46.816 279.177 48.128 280.713 49.728C282.249 51.264 283.401 52.832 284.169 54.432C284.937 55.968 285.417 57.28 285.609 58.368C285.865 59.392 285.993 59.904 285.993 59.904H272.937C272.937 59.904 272.745 59.488 272.361 58.656C271.977 57.76 271.177 56.896 269.961 56.064C268.809 55.168 267.017 54.72 264.585 54.72C262.089 54.72 260.361 55.232 259.401 56.256C258.441 57.216 257.961 58.24 257.961 59.328C257.961 60.608 258.505 61.568 259.593 62.208C260.745 62.848 262.217 63.36 264.009 63.744L270.633 65.088C275.497 66.048 279.497 67.744 282.633 70.176C285.769 72.544 287.337 76 287.337 80.544C287.337 83.616 286.537 86.4 284.937 88.896C283.337 91.392 281.001 93.376 277.929 94.848C274.857 96.256 271.081 96.96 266.601 96.96ZM318.077 44.16C321.341 44.16 324.029 44.704 326.141 45.792C328.253 46.816 329.853 47.936 330.941 49.152C332.093 50.368 332.797 51.2 333.053 51.648H333.821V45.12H348.413V96H333.821V89.472H333.053C332.797 89.92 332.093 90.752 330.941 91.968C329.853 93.184 328.253 94.336 326.141 95.424C324.029 96.448 321.341 96.96 318.077 96.96C314.301 96.96 311.005 96.224 308.189 94.752C305.437 93.216 303.133 91.2 301.277 88.704C299.421 86.144 298.013 83.296 297.053 80.16C296.157 77.024 295.709 73.824 295.709 70.56C295.709 67.296 296.157 64.096 297.053 60.96C298.013 57.824 299.421 55.008 301.277 52.512C303.133 49.952 305.437 47.936 308.189 46.464C311.005 44.928 314.301 44.16 318.077 44.16ZM322.301 55.968C319.677 55.968 317.469 56.704 315.677 58.176C313.949 59.584 312.637 61.408 311.741 63.648C310.909 65.888 310.493 68.192 310.493 70.56C310.493 72.928 310.909 75.232 311.741 77.472C312.637 79.712 313.949 81.568 315.677 83.04C317.469 84.448 319.677 85.152 322.301 85.152C324.925 85.152 327.101 84.448 328.829 83.04C330.621 81.568 331.933 79.712 332.765 77.472C333.661 75.232 334.109 72.928 334.109 70.56C334.109 68.192 333.661 65.888 332.765 63.648C331.933 61.408 330.621 59.584 328.829 58.176C327.101 56.704 324.925 55.968 322.301 55.968Z" fill="black"/>
<ellipse cx="31.5" cy="68.9626" rx="31.5" ry="31" fill="black"/>
<path d="M8.5 41.5C6.94217 44.3833 5.81987 51.5512 6.68322 55.5369C8.09232 62.0423 9.80812 67.7901 10.5511 70.0425C12.3919 73.9041 14.9486 78.0749 17.3476 80.3328C16.0714 78.9148 14.2326 73.6177 15.2706 61.2384C16.3176 48.7506 22.6365 40.6333 26.2699 37.5725L19.0816 38.2661L8.5 41.5Z" fill="white"/>
<path d="M6.68322 55.5369L5.21721 55.8545L5.21721 55.8545L6.68322 55.5369ZM19.0816 38.2661L18.9375 36.7731C18.8377 36.7827 18.7391 36.8023 18.6432 36.8316L19.0816 38.2661ZM15.2706 61.2384L16.7653 61.3638L15.2706 61.2384ZM17.6413 80.6002L16.7791 81.8276C17.4309 82.2856 18.3271 82.1541 18.8199 81.5281C19.3127 80.9021 19.2302 80.0001 18.632 79.474L17.6413 80.6002ZM8.5 41.5L7.1803 40.787L7.1803 40.787L8.5 41.5ZM13.7758 61.1131C13.2498 67.3868 13.4464 71.933 13.9603 75.1338C14.4633 78.2675 15.2999 80.2998 16.2327 81.3362L18.4626 79.3293C18.1192 78.9478 17.3982 77.6225 16.9223 74.6583C16.4572 71.7613 16.2534 67.4693 16.7653 61.3638L13.7758 61.1131ZM16.2327 81.3362C16.3934 81.5147 16.5749 81.6842 16.7791 81.8276L18.5036 79.3729C18.5137 79.3799 18.5143 79.3814 18.5061 79.3739C18.4981 79.3666 18.4833 79.3524 18.4626 79.3293L16.2327 81.3362ZM18.632 79.474C18.5477 79.3998 18.4623 79.322 18.3757 79.2405L16.3196 81.4251C16.4294 81.5284 16.5397 81.629 16.6506 81.7265L18.632 79.474ZM7.1803 40.787C6.27433 42.4638 5.57388 45.1863 5.19787 47.8991C4.82017 50.6241 4.73166 53.6129 5.21721 55.8545L8.14922 55.2194C7.77142 53.4752 7.81239 50.8872 8.16946 48.311C8.52822 45.7226 9.16784 43.4195 9.8197 42.213L7.1803 40.787ZM5.21721 55.8545C6.63872 62.4171 8.36908 68.2159 9.12655 70.5124L11.9756 69.5727C11.2472 67.3643 9.54592 61.6675 8.14922 55.2194L5.21721 55.8545ZM9.19704 70.688C11.0614 74.5989 13.7144 78.9732 16.3196 81.4251L18.3757 79.2405C16.1828 77.1766 13.7224 73.2093 11.9051 69.397L9.19704 70.688ZM16.7653 61.3638C17.7752 49.3189 23.8709 41.5547 27.2363 38.7197L25.3035 36.4253C21.402 39.7119 14.86 48.1823 13.7758 61.1131L16.7653 61.3638ZM26.1259 36.0794L18.9375 36.7731L19.2257 39.7592L26.414 39.0655L26.1259 36.0794ZM18.6432 36.8316L8.0616 40.0655L8.9384 42.9345L19.52 39.7006L18.6432 36.8316ZM26.113 35.7879C25.8547 35.9761 25.584 36.189 25.3035 36.4253L27.2363 38.7197C27.469 38.5237 27.6845 38.3548 27.8802 38.2121L26.113 35.7879ZM26.4028 36.0527L26.1259 36.0794L26.414 39.0655L26.691 39.0388L26.4028 36.0527ZM9.12655 70.5124C9.15093 70.5863 9.1759 70.6421 9.1842 70.6605C9.19578 70.6863 9.20594 70.7069 9.21213 70.7193C9.22455 70.7441 9.23554 70.7644 9.24161 70.7755C9.25447 70.7991 9.26733 70.8215 9.27684 70.838C9.29694 70.8727 9.322 70.9149 9.34882 70.9597C9.40341 71.0508 9.47819 71.1739 9.56475 71.3158C9.73843 71.6004 9.96757 71.9734 10.195 72.3435C10.4232 72.7149 10.6498 73.0835 10.8205 73.363C10.9062 73.5031 10.9759 73.6178 11.0242 73.6981C11.0488 73.739 11.0649 73.7662 11.074 73.7817C11.079 73.7904 11.0779 73.7887 11.0737 73.7809C11.0719 73.7778 11.0645 73.7644 11.0548 73.7454C11.0501 73.736 11.0409 73.7178 11.0301 73.6942C11.0233 73.6794 10.9969 73.6223 10.9713 73.5456L13.8161 72.5934C13.7902 72.5158 13.7633 72.4573 13.7558 72.4409C13.7442 72.4157 13.7341 72.3956 13.7281 72.384C13.7162 72.3604 13.7056 72.341 13.6998 72.3307C13.6876 72.3085 13.6753 72.2872 13.666 72.2713C13.6465 72.2378 13.6219 72.1966 13.5953 72.1523C13.5412 72.0623 13.4668 71.94 13.3804 71.7987C13.2072 71.5152 12.9783 71.1428 12.751 70.7729C12.5229 70.4016 12.2964 70.0329 12.1256 69.7531C12.04 69.6128 11.9704 69.498 11.9223 69.4178C11.8977 69.3768 11.8819 69.35 11.8732 69.3351C11.8684 69.3267 11.8699 69.3291 11.8747 69.3379C11.8767 69.3416 11.8845 69.3559 11.8946 69.3759C11.8996 69.3859 11.9087 69.4045 11.9196 69.4286C11.9271 69.4453 11.9515 69.4998 11.9756 69.5727L9.12655 70.5124ZM11.9051 69.397C11.8764 69.3369 11.8422 69.2296 11.7729 68.9604C11.7202 68.7556 11.628 68.3714 11.4741 68.025L8.73236 69.2427C8.76252 69.3106 8.79297 69.4183 8.86755 69.7081C8.92556 69.9335 9.02322 70.3234 9.19704 70.688L11.9051 69.397ZM7.0849 41.0025L5.85449 44.5025L8.68471 45.4975L9.91511 41.9975L7.0849 41.0025ZM12.0994 41.9408C20.1386 40.0757 24.0965 39.068 25.4535 38.6383C25.6271 38.5834 25.7894 38.5282 25.9244 38.474C25.9887 38.4481 26.0801 38.4093 26.1751 38.3579C26.2221 38.3324 26.2974 38.2892 26.381 38.2274C26.4428 38.1816 26.6226 38.0449 26.7724 37.8069C26.9437 37.5348 27.1689 36.9442 26.8344 36.3029C26.5725 35.8008 26.1338 35.627 26.0215 35.5847C25.7494 35.4824 25.5023 35.4823 25.4659 35.4815C25.3025 35.478 25.1301 35.4949 25.0061 35.509C24.4718 35.5697 23.495 35.7448 22.3216 35.9802C19.9398 36.458 16.5108 37.2327 13.6003 38.0143C12.149 38.404 10.7968 38.8033 9.75951 39.1755C9.24498 39.3601 8.76955 39.5515 8.38589 39.7464C8.19506 39.8433 7.99309 39.9579 7.80897 40.0925C7.65255 40.2068 7.37228 40.4316 7.1803 40.787L9.8197 42.213C9.749 42.3439 9.67418 42.4254 9.63932 42.4606C9.61948 42.4806 9.60374 42.4945 9.59431 42.5024C9.58473 42.5105 9.57916 42.5145 9.57884 42.5148C9.57841 42.5151 9.58164 42.5127 9.58923 42.5078C9.59676 42.5029 9.60756 42.4961 9.62206 42.4875C9.65151 42.4701 9.69169 42.4479 9.74431 42.4212C9.96563 42.3088 10.3071 42.1663 10.7726 41.9992C11.6954 41.6682 12.9557 41.2936 14.3783 40.9116C17.2157 40.1497 20.5807 39.3892 22.9117 38.9216C24.0947 38.6843 24.9541 38.5342 25.3448 38.4898C25.452 38.4776 25.4539 38.482 25.4017 38.4809C25.3831 38.4805 25.3407 38.479 25.2839 38.472C25.2393 38.4664 25.1162 38.4494 24.965 38.3925C24.8643 38.3547 24.4332 38.1862 24.1746 37.6904C23.8434 37.0555 24.0677 36.4722 24.2337 36.2085C24.3783 35.9788 24.5485 35.8514 24.5964 35.8159C24.6659 35.7645 24.7228 35.7327 24.7469 35.7196C24.7961 35.693 24.8236 35.6831 24.8053 35.6905C24.7748 35.7028 24.6965 35.7313 24.548 35.7783C23.3286 36.1644 19.5019 37.1437 11.4214 39.0184L12.0994 41.9408Z" fill="black"/>
<path d="M54.5789 95.9242C56.1367 93.0408 57.2591 85.873 56.3957 81.8872C54.9866 75.3819 53.2708 69.634 52.5279 67.3816C50.687 63.5201 48.1303 59.3493 45.7313 57.0914C47.0075 58.5094 48.8463 63.8065 47.8083 76.1857C46.7613 88.6736 40.4425 96.7909 36.809 99.8517L43.9973 99.158L54.5789 95.9242Z" fill="white"/>
<path d="M56.3957 81.8872L57.8617 81.5697L57.8617 81.5697L56.3957 81.8872ZM43.9973 99.158L44.1414 100.651C44.2412 100.641 44.3398 100.622 44.4357 100.593L43.9973 99.158ZM47.8083 76.1857L46.3136 76.0604L47.8083 76.1857ZM45.4376 56.8239L46.2999 55.5965C45.648 55.1386 44.7518 55.2701 44.259 55.8961C43.7662 56.522 43.8487 57.424 44.4469 57.9502L45.4376 56.8239ZM54.5789 95.9242L55.8986 96.6372L55.8986 96.6372L54.5789 95.9242ZM49.3031 76.3111C49.8291 70.0374 49.6325 65.4912 49.1187 62.2903C48.6156 59.1567 47.779 57.1244 46.8462 56.0879L44.6163 58.0948C44.9597 58.4764 45.6807 59.8017 46.1566 62.7659C46.6217 65.6629 46.8255 69.9548 46.3136 76.0604L49.3031 76.3111ZM46.8462 56.0879C46.6856 55.9094 46.504 55.74 46.2999 55.5965L44.5753 58.0513C44.5652 58.0442 44.5646 58.0428 44.5728 58.0502C44.5808 58.0575 44.5956 58.0718 44.6163 58.0948L46.8462 56.0879ZM44.4469 57.9502C44.5312 58.0244 44.6167 58.1022 44.7032 58.1837L46.7593 55.9991C46.6495 55.8958 46.5392 55.7952 46.4283 55.6976L44.4469 57.9502ZM55.8986 96.6372C56.8046 94.9604 57.505 92.2379 57.881 89.5251C58.2587 86.8001 58.3473 83.8113 57.8617 81.5697L54.9297 82.2048C55.3075 83.9489 55.2665 86.537 54.9095 89.1132C54.5507 91.7015 53.9111 94.0046 53.2592 95.2111L55.8986 96.6372ZM57.8617 81.5697C56.4402 75.0071 54.7098 69.2082 53.9524 66.9118L51.1034 67.8515C51.8318 70.0599 53.533 75.7567 54.9297 82.2048L57.8617 81.5697ZM53.8819 66.7361C52.0175 62.8253 49.3645 58.451 46.7593 55.9991L44.7032 58.1837C46.8961 60.2476 49.3565 64.2149 51.1738 68.0271L53.8819 66.7361ZM46.3136 76.0604C45.3037 88.1053 39.208 95.8695 35.8426 98.7045L37.7754 100.999C41.6769 97.7123 48.2189 89.2418 49.3031 76.3111L46.3136 76.0604ZM36.9531 101.345L44.1414 100.651L43.8532 97.665L36.6649 98.3586L36.9531 101.345ZM44.4357 100.593L55.0173 97.3587L54.1405 94.4897L43.5589 97.7235L44.4357 100.593ZM36.9659 101.636C37.2242 101.448 37.4949 101.235 37.7754 100.999L35.8426 98.7045C35.61 98.9005 35.3944 99.0694 35.1987 99.212L36.9659 101.636ZM36.6761 101.371L36.9531 101.345L36.6649 98.3586L36.3879 98.3854L36.6761 101.371ZM53.9524 66.9118C53.928 66.8379 53.903 66.782 53.8947 66.7636C53.8831 66.7379 53.873 66.7172 53.8668 66.7049C53.8544 66.6801 53.8434 66.6597 53.8373 66.6486C53.8245 66.6251 53.8116 66.6026 53.8021 66.5862C53.782 66.5515 53.7569 66.5093 53.7301 66.4645C53.6755 66.3734 53.6007 66.2502 53.5142 66.1084C53.3405 65.8238 53.1113 65.4508 52.8839 65.0807C52.6557 64.7092 52.4292 64.3407 52.2584 64.0612C52.1727 63.9211 52.103 63.8064 52.0547 63.7261C52.0301 63.6852 52.014 63.658 52.0049 63.6425C51.9999 63.6338 52.001 63.6355 52.0052 63.6432C52.007 63.6464 52.0144 63.6598 52.0241 63.6788C52.0288 63.6882 52.038 63.7063 52.0488 63.7299C52.0556 63.7447 52.082 63.8019 52.1076 63.8786L49.2628 64.8308C49.2887 64.9084 49.3156 64.9668 49.3232 64.9832C49.3347 65.0084 49.3448 65.0286 49.3508 65.0402C49.3628 65.0638 49.3734 65.0831 49.3791 65.0935C49.3913 65.1156 49.4037 65.137 49.4129 65.1528C49.4324 65.1864 49.457 65.2276 49.4836 65.2718C49.5377 65.3618 49.6121 65.4841 49.6985 65.6255C49.8717 65.909 50.1006 66.2814 50.3279 66.6513C50.556 67.0225 50.7826 67.3912 50.9533 67.671C51.039 67.8114 51.1086 67.9261 51.1567 68.0064C51.1812 68.0473 51.197 68.0742 51.2057 68.0891C51.2105 68.0975 51.209 68.095 51.2042 68.0862C51.2022 68.0825 51.1944 68.0683 51.1844 68.0482C51.1794 68.0382 51.1702 68.0196 51.1594 67.9956C51.1518 67.9789 51.1274 67.9244 51.1034 67.8515L53.9524 66.9118ZM51.1738 68.0271C51.2025 68.0873 51.2368 68.1946 51.306 68.4637C51.3587 68.6685 51.4509 69.0528 51.6048 69.3992L54.3466 68.1815C54.3164 68.1136 54.286 68.0059 54.2114 67.716C54.1534 67.4906 54.0557 67.1008 53.8819 66.7361L51.1738 68.0271ZM55.994 96.4216L57.2244 92.9216L54.3942 91.9267L53.1638 95.4267L55.994 96.4216ZM50.9796 95.4834C42.9403 97.3485 38.9824 98.3561 37.6254 98.7858C37.4518 98.8408 37.2895 98.8959 37.1545 98.9502C37.0902 98.9761 36.9988 99.0149 36.9038 99.0663C36.8568 99.0918 36.7815 99.1349 36.698 99.1967C36.6361 99.2425 36.4563 99.3793 36.3065 99.6173C36.1352 99.8893 35.91 100.48 36.2445 101.121C36.5064 101.623 36.9451 101.797 37.0574 101.839C37.3295 101.942 37.5766 101.942 37.613 101.943C37.7764 101.946 37.9488 101.929 38.0728 101.915C38.6071 101.854 39.5839 101.679 40.7573 101.444C43.1392 100.966 46.5681 100.191 49.4786 99.4099C50.9299 99.0202 52.2821 98.6209 53.3194 98.2487C53.8339 98.0641 54.3094 97.8726 54.693 97.6778C54.8839 97.5809 55.0858 97.4662 55.2699 97.3317C55.4264 97.2174 55.7066 96.9925 55.8986 96.6372L53.2592 95.2111C53.3299 95.0803 53.4047 94.9988 53.4396 94.9636C53.4594 94.9436 53.4752 94.9297 53.4846 94.9218C53.4942 94.9137 53.4998 94.9096 53.5001 94.9094C53.5005 94.9091 53.4973 94.9114 53.4897 94.9164C53.4822 94.9213 53.4714 94.9281 53.4569 94.9366C53.4274 94.9541 53.3872 94.9762 53.3346 95.003C53.1133 95.1154 52.7718 95.2579 52.3063 95.4249C51.3835 95.756 50.1232 96.1305 48.7006 96.5126C45.8632 97.2745 42.4982 98.035 40.1673 98.5026C38.9842 98.7399 38.1249 98.89 37.7342 98.9344C37.6269 98.9465 37.625 98.9422 37.6772 98.9433C37.6958 98.9437 37.7382 98.9451 37.795 98.9522C37.8396 98.9578 37.9627 98.9747 38.1139 99.0316C38.2146 99.0695 38.6457 99.2379 38.9044 99.7337C39.2356 100.369 39.0113 100.952 38.8452 101.216C38.7006 101.445 38.5304 101.573 38.4825 101.608C38.413 101.66 38.3561 101.691 38.332 101.705C38.2828 101.731 38.2553 101.741 38.2737 101.734C38.3041 101.721 38.3824 101.693 38.5309 101.646C39.7503 101.26 43.577 100.28 51.6576 98.4057L50.9796 95.4834Z" fill="black"/>
</svg>
